<?xml version="1.0" encoding="UTF-8" standalone="no"?>
<!-- Created with Inkscape (http://www.inkscape.org/) -->

<svg
   xmlns:dc="http://purl.org/dc/elements/1.1/"
   xmlns:cc="http://creativecommons.org/ns#"
   xmlns:rdf="http://www.w3.org/1999/02/22-rdf-syntax-ns#"
   xmlns:svg="http://www.w3.org/2000/svg"
   xmlns="http://www.w3.org/2000/svg"
   xmlns:sodipodi="http://sodipodi.sourceforge.net/DTD/sodipodi-0.dtd"
   xmlns:inkscape="http://www.inkscape.org/namespaces/inkscape"
   version="1.1"
   width="15"
   height="15"
   id="svg3204"
   inkscape:version="0.48.5 r10040"
   sodipodi:docname="plus-circle.svg">
  <sodipodi:namedview
     pagecolor="#ffffff"
     bordercolor="#666666"
     borderopacity="1"
     objecttolerance="10"
     gridtolerance="10"
     guidetolerance="10"
     inkscape:pageopacity="0"
     inkscape:pageshadow="2"
     inkscape:window-width="928"
     inkscape:window-height="498"
     id="namedview2989"
     showgrid="false"
     inkscape:zoom="9.5567708"
     inkscape:cx="15"
     inkscape:cy="15"
     inkscape:window-x="0"
     inkscape:window-y="0"
     inkscape:window-maximized="0"
     inkscape:current-layer="svg3204" />
  <defs
     id="defs3206" />
  <metadata
     id="metadata3209">
    <rdf:RDF>
      <cc:Work
         rdf:about="">
        <dc:format>image/svg+xml</dc:format>
        <dc:type
           rdf:resource="http://purl.org/dc/dcmitype/StillImage" />
        <dc:title />
      </cc:Work>
    </rdf:RDF>
  </metadata>
  <g
     transform="matrix(0.50032551,0,0,0.50032688,-0.03127034,-511.49383)"
     id="layer1">
    <path
       style="fill:#808080;fill-opacity:1;stroke:#000000;stroke-width:0.01951854px;stroke-linecap:butt;stroke-linejoin:miter;stroke-opacity:1"
       d="M 30.042982,1037.3095 Q 30.042982,1033.2301 28.032572,1029.7851 26.022162,1026.3401 22.577139,1024.3297 19.132116,1022.3193 15.052741,1022.3193 10.973366,1022.3193 7.5283425,1024.3297 4.0833198,1026.3401 2.0729099,1029.7851 0.0625,1033.2301 0.0625,1037.3095 0.0625,1041.3889 2.0729099,1044.8339 4.0833198,1048.2789 7.5283425,1050.2893 10.973366,1052.2997 15.052741,1052.2997 19.132116,1052.2997 22.577139,1050.2893 26.022162,1048.2789 28.032572,1044.8339 30.042982,1041.3889 30.042982,1037.3095 z"
       id="path3231"
       inkscape:connector-curvature="0" />
    <path
       style="fill:#ffffff;fill-opacity:1;stroke:#000000;stroke-width:0.01951854px;stroke-linecap:butt;stroke-linejoin:miter;stroke-opacity:1"
       d="M 23.797048,1036.0603 V 1038.5587 Q 23.797048,1039.0662 23.426196,1039.437 23.055343,1039.8079 22.547861,1039.8079 H 17.551114 V 1044.8046 Q 17.551114,1045.3121 17.180262,1045.683 16.80941,1046.0538 16.301928,1046.0538 H 13.803554 Q 13.296072,1046.0538 12.92522,1045.683 12.554368,1045.3121 12.554368,1044.8046 V 1039.8079 H 7.5576203 Q 7.0501382,1039.8079 6.6792859,1039.437 6.3084336,1039.0662 6.3084336,1038.5587 V 1036.0603 Q 6.3084336,1035.5528 6.6792859,1035.182 7.0501382,1034.8111 7.5576203,1034.8111 H 12.554368 V 1029.8144 Q 12.554368,1029.3069 12.92522,1028.936 13.296072,1028.5652 13.803554,1028.5652 H 16.301928 Q 16.80941,1028.5652 17.180262,1028.936 17.551114,1029.3069 17.551114,1029.8144 V 1034.8111 H 22.547861 Q 23.055343,1034.8111 23.426196,1035.182 23.797048,1035.5528 23.797048,1036.0603 z"
       id="path2993"
       inkscape:connector-curvature="0" />
  </g>
</svg>
