<?xml version="1.0" encoding="UTF-8" standalone="no"?>
<!-- Created with Inkscape (http://www.inkscape.org/) -->

<svg
   xmlns:dc="http://purl.org/dc/elements/1.1/"
   xmlns:cc="http://creativecommons.org/ns#"
   xmlns:rdf="http://www.w3.org/1999/02/22-rdf-syntax-ns#"
   xmlns:svg="http://www.w3.org/2000/svg"
   xmlns="http://www.w3.org/2000/svg"
   xmlns:sodipodi="http://sodipodi.sourceforge.net/DTD/sodipodi-0.dtd"
   xmlns:inkscape="http://www.inkscape.org/namespaces/inkscape"
   id="svg3853"
   version="1.1"
   inkscape:version="0.48.2 r9819"
   width="33.270508"
   height="33.73996"
   sodipodi:docname="thumbs_up.svg">
  <metadata
     id="metadata3859">
    <rdf:RDF>
      <cc:Work
         rdf:about="">
        <dc:format>image/svg+xml</dc:format>
        <dc:type
           rdf:resource="http://purl.org/dc/dcmitype/StillImage" />
        <dc:title></dc:title>
      </cc:Work>
    </rdf:RDF>
  </metadata>
  <defs
     id="defs3857" />
  <sodipodi:namedview
     pagecolor="#ffffff"
     bordercolor="#666666"
     borderopacity="1"
     objecttolerance="10"
     gridtolerance="10"
     guidetolerance="10"
     inkscape:pageopacity="0"
     inkscape:pageshadow="2"
     inkscape:window-width="1052"
     inkscape:window-height="814"
     id="namedview3855"
     showgrid="false"
     fit-margin-top="0"
     fit-margin-left="0"
     fit-margin-right="0"
     fit-margin-bottom="0"
     inkscape:zoom="1"
     inkscape:cx="17.575847"
     inkscape:cy="9.5953687"
     inkscape:window-x="0"
     inkscape:window-y="0"
     inkscape:window-maximized="0"
     inkscape:current-layer="svg3853" />
  <path
     style="fill:#5c5c5c;fill-opacity:1;stroke:none"
     d="m 14.054011,33.342635 c -1.210232,1.109379 -2.312545,-0.301636 -2.915817,-1.809817 -0.603273,-1.508181 -0.603273,-2.942767 -0.100546,-4.048766 0.502728,-1.106 2.138404,-4.652038 1.736222,-5.556947 C 12.397387,21.080018 9.937537,21.866415 7.344419,21.625469 4.751301,21.384524 1.885913,20.57145 1.110604,19.41347 0.33529501,18.25549 0.60787701,16.497653 0.70842201,15.4922 c 0.100546,-1.005454 -0.779342,-1.053644 -0.703817,-2.714726 0.07552,-1.661083 1.10599899,-1.608727 1.10599899,-2.41309 0,-0.8043631 -0.40218199,-1.3070901 -0.40218199,-2.6141801 0,-1.30709 1.30709099,-1.608727 1.50818199,-2.41309 0.201091,-0.804364 -0.301637,-1.106 0.301636,-2.312544 0.603272,-1.206545 1.709272,-2.11145299 3.317998,-2.61418099 1.608726,-0.502727 5.127816,-0.402181 6.233815,-0.402181 1.105999,0 4.406521,0.20481 6.33436,0.603272 1.927839,0.39846199 5.503047,0.80436299 7.6145,0.90490899 0,1.508181 0,14.6796281 0,14.6796281 -2.546199,-0.343521 -5.630513,6.607026 -6.508501,7.842541 -0.877987,1.235516 -2.138403,2.842221 -2.942766,4.652039 -0.804364,1.809817 -1.303404,3.54266 -2.513635,4.652038 z"
     id="path3863"
     inkscape:connector-curvature="0"
     sodipodi:nodetypes="zzzszzszsssssszcczzz" />
  <rect
     style="fill:#5c5c5c;fill-opacity:1;stroke:none"
     id="rect3865"
     width="5.1424632"
     height="14.707401"
     x="-33.270508"
     y="-16.209904"
     transform="scale(-1,-1)" />
</svg>
