<?xml version="1.0" encoding="UTF-8" standalone="no"?>
<!-- Created with Inkscape (http://www.inkscape.org/) -->

<svg
   xmlns:dc="http://purl.org/dc/elements/1.1/"
   xmlns:cc="http://creativecommons.org/ns#"
   xmlns:rdf="http://www.w3.org/1999/02/22-rdf-syntax-ns#"
   xmlns:svg="http://www.w3.org/2000/svg"
   xmlns="http://www.w3.org/2000/svg"
   xmlns:sodipodi="http://sodipodi.sourceforge.net/DTD/sodipodi-0.dtd"
   xmlns:inkscape="http://www.inkscape.org/namespaces/inkscape"
   width="34.063942"
   height="31.604111"
   id="svg2"
   version="1.1"
   inkscape:version="0.48.2 r9819"
   sodipodi:docname="New document 1">
  <defs
     id="defs4" />
  <sodipodi:namedview
     id="base"
     pagecolor="#ffffff"
     bordercolor="#666666"
     borderopacity="1.0"
     inkscape:pageopacity="0.0"
     inkscape:pageshadow="2"
     inkscape:zoom="3.4029514"
     inkscape:cx="-34.489612"
     inkscape:cy="61.983953"
     inkscape:document-units="px"
     inkscape:current-layer="layer1"
     showgrid="false"
     fit-margin-top="0"
     fit-margin-left="0"
     fit-margin-right="0"
     fit-margin-bottom="0"
     inkscape:window-width="1260"
     inkscape:window-height="1078"
     inkscape:window-x="4"
     inkscape:window-y="0"
     inkscape:window-maximized="0" />
  <metadata
     id="metadata7">
    <rdf:RDF>
      <cc:Work
         rdf:about="">
        <dc:format>image/svg+xml</dc:format>
        <dc:type
           rdf:resource="http://purl.org/dc/dcmitype/StillImage" />
        <dc:title></dc:title>
      </cc:Work>
    </rdf:RDF>
  </metadata>
  <g
     inkscape:label="Layer 1"
     inkscape:groupmode="layer"
     id="layer1"
     transform="translate(-58.25516,-97.287479)">
    <path
       style="fill:#5c5c5c;fill-opacity:1;stroke:#000000;stroke-width:0.01891774px;stroke-linecap:butt;stroke-linejoin:miter;stroke-opacity:1"
       d="M 72.865662,123.36187 V 119.7675 Q 72.865662,119.50265 73.04538,119.32293 73.225099,119.14321 73.471029,119.14321 H 77.103235 Q 77.349165,119.14321 77.528883,119.32293 77.708602,119.50265 77.708602,119.7675 V 123.36187 Q 77.708602,123.62672 77.528883,123.80643 77.349165,123.98615 77.103235,123.98615 L 73.471029,123.98615 Q 73.225099,123.98615 73.04538,123.80643 72.865662,123.62672 72.865662,123.36187 z M 72.903497,116.28664 72.562978,107.60339 Q 72.562978,107.37638 72.752155,107.24396 72.998086,107.03586 73.206181,107.03586 H 77.368083 Q 77.576178,107.03586 77.822108,107.24396 78.011286,107.37638 78.011286,107.64123 L 77.689684,116.28664 Q 77.689684,116.47581 77.500507,116.59878 77.31133,116.72174 77.046481,116.72174 H 73.5467 Q 73.281852,116.72174 73.102133,116.59878 72.922415,116.47581 72.903497,116.28664 z M 73.168345,98.61747 58.639524,125.25364 Q 57.977403,126.44546 58.67736,127.63728 58.998961,128.18589 59.557035,128.50749 60.115107,128.82909 60.758311,128.82909 L 89.815953,128.82909 Q 90.459157,128.82909 91.017229,128.50749 91.575301,128.18589 91.896903,127.63728 92.59686,126.44546 91.934738,125.25364 L 77.405918,98.61747 Q 77.084317,98.031019 76.516785,97.690499 75.949252,97.349979 75.287132,97.349979 74.625011,97.349979 74.057479,97.690499 73.489947,98.031019 73.168345,98.61747 z"
       id="path2985"
       inkscape:connector-curvature="0" />
  </g>
</svg>
