<?xml version="1.0" encoding="UTF-8" standalone="no"?>
<!-- Generator: Adobe Illustrator 15.1.0, SVG Export Plug-In . SVG Version: 6.00 Build 0)  -->

<svg
   xmlns:dc="http://purl.org/dc/elements/1.1/"
   xmlns:cc="http://creativecommons.org/ns#"
   xmlns:rdf="http://www.w3.org/1999/02/22-rdf-syntax-ns#"
   xmlns:svg="http://www.w3.org/2000/svg"
   xmlns="http://www.w3.org/2000/svg"
   xmlns:xlink="http://www.w3.org/1999/xlink"
   xmlns:sodipodi="http://sodipodi.sourceforge.net/DTD/sodipodi-0.dtd"
   xmlns:inkscape="http://www.inkscape.org/namespaces/inkscape"
   version="1.1"
   id="svg2"
   sodipodi:docname="brainspell.svg"
   inkscape:version="0.48.2 r9819"
   x="0px"
   y="0px"
   width="215.77757"
   height="50.636147"
   viewBox="0 48.553 215.77758 50.636147"
   enable-background="new 0 48.553 284.021 78.196"
   xml:space="preserve"><metadata
   id="metadata56"><rdf:RDF><cc:Work
       rdf:about=""><dc:format>image/svg+xml</dc:format><dc:type
         rdf:resource="http://purl.org/dc/dcmitype/StillImage" /></cc:Work></rdf:RDF></metadata><defs
   id="defs54">
	
		<linearGradient
   gradientTransform="matrix(1,0,0,-1,-38.9316,991.5068)"
   y2="936.47992"
   x2="72.201897"
   y1="883.03473"
   x1="72.201897"
   gradientUnits="userSpaceOnUse"
   id="SVGID_1_">
		<stop
   id="stop7"
   style="stop-color:#48A8A7;stop-opacity:0.502"
   offset="0" />
		<stop
   id="stop9"
   style="stop-color:#48A8A7"
   offset="0.4999" />
		<stop
   id="stop11"
   style="stop-color:#48A8A7;stop-opacity:0.502"
   offset="1" />
	</linearGradient>
	
	
	
	
	
	
	
	
	
	<linearGradient
   y2="107.7745"
   x2="15.4866"
   y1="120.2745"
   x1="15.4866"
   gradientUnits="userSpaceOnUse"
   id="SVGID_2_">
		<stop
   id="stop46"
   style="stop-color:#FB5B00"
   offset="0" />
		<stop
   id="stop48"
   style="stop-color:#FBDE00"
   offset="1" />
	</linearGradient>
	
	
<linearGradient
   inkscape:collect="always"
   xlink:href="#SVGID_1_"
   id="linearGradient3046"
   gradientUnits="userSpaceOnUse"
   gradientTransform="matrix(1,0,0,-1,-40.9316,987.5068)"
   x1="72.201897"
   y1="883.03473"
   x2="72.201897"
   y2="936.47992" /></defs>
<sodipodi:namedview
   pagecolor="#ffffff"
   id="base"
   bordercolor="#666666"
   borderopacity="1.0"
   inkscape:cx="90.180855"
   inkscape:pageopacity="0.0"
   inkscape:pageshadow="2"
   inkscape:zoom="4.6237565"
   inkscape:cy="13.984993"
   inkscape:document-units="px"
   inkscape:current-layer="svg2"
   showgrid="false"
   inkscape:snap-bbox="true"
   inkscape:object-paths="false"
   inkscape:window-width="1916"
   inkscape:window-height="1156"
   inkscape:window-x="4"
   inkscape:window-y="0"
   inkscape:window-maximized="1"
   showguides="true"
   inkscape:guide-bbox="true"
   fit-margin-top="0"
   fit-margin-left="0"
   fit-margin-right="0"
   fit-margin-bottom="0">
	</sodipodi:namedview>
<g
   transform="matrix(0.86960453,0,0,1.1812109,-69.577058,-9.3499584)"
   id="text2985">
		<path
   style="fill:#757775"
   inkscape:connector-curvature="0"
   d="m 80.011,49.02 h 9.422 v 11.646 c 0.932,-0.978 1.986,-1.712 3.163,-2.201 1.192,-0.489 2.507,-0.734 3.943,-0.734 2.966,0 5.418,1.07 7.359,3.209 1.94,2.124 2.91,5.181 2.91,9.17 0,2.659 -0.443,5.005 -1.329,7.038 -0.887,2.017 -2.117,3.53 -3.691,4.539 -1.558,0.994 -3.293,1.49 -5.204,1.49 -1.636,0 -3.133,-0.351 -4.493,-1.055 -1.024,-0.55 -2.14,-1.582 -3.348,-3.095 v 3.599 H 80.01 V 49.02 m 9.353,21.365 c 0,2.094 0.39,3.615 1.169,4.562 0.795,0.933 1.796,1.398 3.004,1.398 1.115,0 2.048,-0.458 2.796,-1.375 0.765,-0.933 1.147,-2.491 1.147,-4.677 0,-1.925 -0.375,-3.339 -1.124,-4.241 -0.734,-0.902 -1.628,-1.353 -2.682,-1.353 -1.269,0 -2.307,0.474 -3.118,1.421 -0.795,0.934 -1.192,2.355 -1.192,4.265"
   id="path3121" />
		<path
   style="fill:#757775"
   inkscape:connector-curvature="0"
   d="m 111.416,58.281 h 8.735 v 3.989 c 0.84,-1.727 1.704,-2.911 2.59,-3.553 0.902,-0.657 2.011,-0.986 3.324,-0.986 1.375,0 2.88,0.428 4.516,1.284 l -2.888,6.648 c -1.1,-0.458 -1.971,-0.688 -2.614,-0.688 -1.222,0 -2.17,0.505 -2.842,1.513 -0.963,1.421 -1.444,4.08 -1.444,7.978 v 8.161 h -9.376 V 58.281"
   id="path3123" />
		<path
   style="fill:#757775"
   inkscape:connector-curvature="0"
   d="m 141.47,66.167 -8.918,-0.94 c 0.337,-1.558 0.818,-2.781 1.444,-3.667 0.643,-0.902 1.56,-1.681 2.751,-2.338 0.856,-0.474 2.033,-0.84 3.53,-1.1 1.498,-0.26 3.118,-0.39 4.861,-0.39 2.796,0 5.043,0.16 6.739,0.482 1.697,0.305 3.11,0.955 4.242,1.949 0.795,0.687 1.421,1.665 1.879,2.934 0.459,1.253 0.689,2.453 0.689,3.599 v 10.751 c 0,1.146 0.068,2.048 0.205,2.705 0.153,0.642 0.474,1.467 0.963,2.476 h -8.756 c -0.352,-0.627 -0.581,-1.1 -0.689,-1.421 -0.106,-0.336 -0.213,-0.856 -0.321,-1.559 -1.223,1.177 -2.437,2.017 -3.645,2.522 -1.651,0.673 -3.568,1.009 -5.754,1.009 -2.903,0 -5.112,-0.673 -6.625,-2.017 -1.498,-1.345 -2.247,-3.003 -2.247,-4.975 0,-1.849 0.542,-3.37 1.628,-4.562 1.085,-1.192 3.087,-2.078 6.006,-2.659 3.5,-0.703 5.769,-1.192 6.808,-1.467 1.039,-0.291 2.14,-0.665 3.301,-1.124 0,-1.146 -0.236,-1.948 -0.711,-2.407 -0.474,-0.458 -1.307,-0.687 -2.499,-0.687 -1.528,0 -2.675,0.244 -3.439,0.733 -0.594,0.38 -1.075,1.099 -1.442,2.153 m 8.092,4.906 c -1.284,0.458 -2.621,0.864 -4.012,1.215 -1.895,0.504 -3.095,1.001 -3.599,1.49 -0.519,0.504 -0.78,1.077 -0.78,1.719 0,0.734 0.253,1.337 0.757,1.811 0.52,0.458 1.277,0.688 2.27,0.688 1.039,0 2.001,-0.252 2.888,-0.756 0.901,-0.504 1.535,-1.116 1.902,-1.834 0.382,-0.733 0.573,-1.681 0.573,-2.842 v -1.491"
   id="path3125" />
		<path
   style="fill:#757775"
   inkscape:connector-curvature="0"
   d="M 164.67,49.02 H 174 v 6.35 h -9.33 v -6.35 m 0,9.261 H 174 v 24.346 h -9.33 V 58.281"
   id="path3127" />
		<path
   style="fill:#757775"
   inkscape:connector-curvature="0"
   d="m 180.006,58.281 h 8.688 v 3.966 c 1.299,-1.62 2.613,-2.774 3.943,-3.462 1.33,-0.703 2.95,-1.055 4.86,-1.055 2.583,0 4.6,0.772 6.053,2.315 1.466,1.528 2.2,3.897 2.2,7.107 v 15.474 h -9.376 V 69.239 c 0,-1.529 -0.283,-2.606 -0.848,-3.233 -0.565,-0.642 -1.36,-0.963 -2.384,-0.963 -1.13,0 -2.048,0.428 -2.751,1.284 -0.702,0.856 -1.054,2.392 -1.054,4.608 v 11.691 h -9.33 V 58.281"
   id="path3129" />
		<path
   style="fill:#f48f00"
   inkscape:connector-curvature="0"
   d="m 209.717,75.887 9.261,-0.871 c 0.383,1.1 0.917,1.888 1.605,2.362 0.689,0.474 1.606,0.711 2.751,0.711 1.254,0 2.224,-0.267 2.912,-0.802 0.535,-0.397 0.803,-0.894 0.803,-1.49 0,-0.673 -0.352,-1.192 -1.054,-1.559 -0.505,-0.26 -1.842,-0.581 -4.012,-0.963 -3.24,-0.565 -5.494,-1.085 -6.763,-1.559 -1.253,-0.489 -2.315,-1.307 -3.186,-2.453 -0.856,-1.146 -1.284,-2.453 -1.284,-3.92 0,-1.605 0.466,-2.988 1.398,-4.149 0.932,-1.161 2.216,-2.025 3.852,-2.59 1.635,-0.581 3.829,-0.871 6.579,-0.871 2.905,0 5.044,0.222 6.419,0.665 1.391,0.444 2.545,1.131 3.462,2.064 0.932,0.932 1.704,2.193 2.315,3.782 l -8.849,0.871 c -0.23,-0.779 -0.611,-1.353 -1.147,-1.719 -0.734,-0.489 -1.62,-0.733 -2.659,-0.734 -1.054,0 -1.826,0.191 -2.315,0.573 -0.474,0.367 -0.711,0.818 -0.711,1.353 0,0.596 0.306,1.047 0.917,1.353 0.611,0.305 1.94,0.581 3.989,0.825 3.102,0.351 5.41,0.841 6.922,1.467 1.513,0.627 2.667,1.521 3.462,2.682 0.81,1.162 1.215,2.438 1.215,3.828 0,1.406 -0.428,2.774 -1.283,4.104 -0.841,1.329 -2.178,2.392 -4.012,3.186 -1.819,0.78 -4.303,1.169 -7.451,1.169 -4.448,0 -7.619,-0.635 -9.513,-1.903 -1.882,-1.27 -3.089,-3.074 -3.623,-5.412"
   id="path3131" />
		<path
   style="fill:#f48f00"
   inkscape:connector-curvature="0"
   d="M 240.113,91.888 V 58.281 h 8.734 v 3.599 c 1.208,-1.513 2.315,-2.537 3.324,-3.072 1.36,-0.718 2.865,-1.078 4.516,-1.078 3.255,0 5.769,1.245 7.542,3.737 1.788,2.491 2.682,5.571 2.682,9.238 0,4.05 -0.97,7.145 -2.911,9.284 -1.94,2.124 -4.394,3.186 -7.358,3.186 -1.436,0 -2.751,-0.244 -3.943,-0.734 -1.177,-0.489 -2.231,-1.215 -3.164,-2.178 v 11.623 h -9.422 m 9.354,-21.363 c 0,1.925 0.405,3.354 1.215,4.287 0.81,0.933 1.834,1.398 3.072,1.398 1.085,0 1.994,-0.443 2.728,-1.329 0.734,-0.902 1.1,-2.422 1.1,-4.562 0,-1.971 -0.382,-3.416 -1.147,-4.333 -0.764,-0.933 -1.696,-1.398 -2.796,-1.398 -1.193,0 -2.186,0.466 -2.981,1.398 -0.794,0.932 -1.191,2.445 -1.191,4.539"
   id="path3133" />
		<path
   style="fill:#f48f00"
   inkscape:connector-curvature="0"
   d="m 298.456,72.769 h -18.707 c 0.168,1.498 0.573,2.613 1.216,3.347 0.901,1.055 2.078,1.582 3.53,1.582 0.917,0 1.788,-0.229 2.614,-0.688 0.504,-0.29 1.046,-0.802 1.628,-1.536 l 9.192,0.848 c -1.406,2.445 -3.103,4.203 -5.089,5.273 -1.986,1.055 -4.837,1.582 -8.551,1.582 -3.224,0 -5.762,-0.451 -7.611,-1.353 -1.849,-0.917 -3.384,-2.361 -4.607,-4.333 -1.208,-1.987 -1.811,-4.317 -1.811,-6.992 0,-3.805 1.215,-6.885 3.645,-9.239 2.444,-2.353 5.815,-3.53 10.109,-3.53 3.484,0 6.235,0.527 8.252,1.582 2.018,1.055 3.553,2.583 4.608,4.585 1.054,2.002 1.581,4.608 1.581,7.817 v 1.055 m -9.49,-4.47 c -0.183,-1.804 -0.673,-3.095 -1.467,-3.874 -0.779,-0.78 -1.811,-1.169 -3.094,-1.169 -1.483,0 -2.667,0.589 -3.554,1.766 -0.565,0.733 -0.924,1.826 -1.077,3.278 h 9.192"
   id="path3135" />
		<path
   style="fill:#f48f00"
   inkscape:connector-curvature="0"
   d="m 303.109,49.02 h 9.353 v 33.607 h -9.353 V 49.02"
   id="path3137" />
		<path
   style="fill:#f48f00"
   inkscape:connector-curvature="0"
   d="m 318.789,49.02 h 9.354 v 33.607 h -9.354 V 49.02"
   id="path3139" />
	</g>
</svg>