<?xml version="1.0" encoding="UTF-8" standalone="no"?>
<!-- Generator: Adobe Illustrator 15.1.0, SVG Export Plug-In . SVG Version: 6.00 Build 0)  -->

<svg
   xmlns:dc="http://purl.org/dc/elements/1.1/"
   xmlns:cc="http://creativecommons.org/ns#"
   xmlns:rdf="http://www.w3.org/1999/02/22-rdf-syntax-ns#"
   xmlns:svg="http://www.w3.org/2000/svg"
   xmlns="http://www.w3.org/2000/svg"
   xmlns:xlink="http://www.w3.org/1999/xlink"
   xmlns:sodipodi="http://sodipodi.sourceforge.net/DTD/sodipodi-0.dtd"
   xmlns:inkscape="http://www.inkscape.org/namespaces/inkscape"
   version="1.1"
   id="svg2"
   sodipodi:docname="brainspell.svg"
   inkscape:version="0.48.2 r9819"
   x="0px"
   y="0px"
   width="51"
   height="51"
   viewBox="0 48.553 51.000002 51"
   enable-background="new 0 48.553 284.021 78.196"
   xml:space="preserve"><metadata
   id="metadata56"><rdf:RDF><cc:Work
       rdf:about=""><dc:format>image/svg+xml</dc:format><dc:type
         rdf:resource="http://purl.org/dc/dcmitype/StillImage" /><dc:title></dc:title></cc:Work></rdf:RDF></metadata><defs
   id="defs54">
	
		<linearGradient
   gradientTransform="matrix(1,0,0,-1,-38.9316,991.5068)"
   y2="936.47992"
   x2="72.201897"
   y1="883.03473"
   x1="72.201897"
   gradientUnits="userSpaceOnUse"
   id="SVGID_1_">
		<stop
   id="stop7"
   style="stop-color:#48A8A7;stop-opacity:0.502"
   offset="0" />
		<stop
   id="stop9"
   style="stop-color:#48A8A7"
   offset="0.4999" />
		<stop
   id="stop11"
   style="stop-color:#48A8A7;stop-opacity:0.502"
   offset="1" />
	</linearGradient>
	
	
	
	
	
	
	
	
	
	<linearGradient
   y2="107.7745"
   x2="15.4866"
   y1="120.2745"
   x1="15.4866"
   gradientUnits="userSpaceOnUse"
   id="SVGID_2_">
		<stop
   id="stop46"
   style="stop-color:#FB5B00"
   offset="0" />
		<stop
   id="stop48"
   style="stop-color:#FBDE00"
   offset="1" />
	</linearGradient>
	
	
<linearGradient
   inkscape:collect="always"
   xlink:href="#SVGID_1_"
   id="linearGradient3046"
   gradientUnits="userSpaceOnUse"
   gradientTransform="matrix(1,0,0,-1,-40.9316,987.5068)"
   x1="72.201897"
   y1="883.03473"
   x2="72.201897"
   y2="936.47992" />
		
		
		
		
		
		
		
		
		
		
	</defs>
<sodipodi:namedview
   pagecolor="#ffffff"
   id="base"
   bordercolor="#666666"
   borderopacity="1.0"
   inkscape:cx="-35.319145"
   inkscape:pageopacity="0.0"
   inkscape:pageshadow="2"
   inkscape:zoom="1"
   inkscape:cy="13.984993"
   inkscape:document-units="px"
   inkscape:current-layer="svg2"
   showgrid="false"
   inkscape:snap-bbox="true"
   inkscape:object-paths="false"
   inkscape:window-width="1916"
   inkscape:window-height="1156"
   inkscape:window-x="31"
   inkscape:window-y="8"
   inkscape:window-maximized="0"
   showguides="true"
   inkscape:guide-bbox="true"
   fit-margin-top="0"
   fit-margin-left="0"
   fit-margin-right="0"
   fit-margin-bottom="0">
	</sodipodi:namedview>
<g
   id="g3014"
   transform="translate(1.8495508,4.9480715)"><path
     style="fill:#757775"
     inkscape:connector-curvature="0"
     d="M 8.7004983e-4,48.916853 H 8.1942839 v 13.756382 c 0.8104715,-1.155224 1.7270346,-2.022233 2.7505591,-2.599845 1.036569,-0.577612 2.180099,-0.867009 3.428851,-0.867009 2.579247,0 4.711517,1.263896 6.399419,3.790506 1.687033,2.508892 2.53055,6.119854 2.53055,10.831704 0,3.14084 -0.385235,5.91196 -1.155705,8.313362 -0.771339,2.382502 -1.840953,4.169675 -3.20971,5.361516 -1.354844,1.174124 -2.863608,1.760005 -4.525422,1.760005 -1.422673,0 -2.724471,-0.414605 -3.907133,-1.246178 C 9.6152177,87.36763 8.6447391,86.14862 7.5942568,84.361448 v 4.251178 H 4.4530002e-7 V 48.916853 M 8.1334116,74.153424 c 0,2.473455 0.3391458,4.270077 1.0165677,5.388684 0.6913356,1.10207 1.5618097,1.651333 2.6122917,1.651333 0.969609,0 1.78095,-0.540995 2.431415,-1.624165 0.665247,-1.10207 0.997436,-2.942397 0.997436,-5.524524 0,-2.273831 -0.326102,-3.944063 -0.977436,-5.009515 -0.638289,-1.065452 -1.415716,-1.598178 -2.332279,-1.598178 -1.103528,0 -2.0061775,0.559894 -2.7114268,1.6785 -0.6913356,1.103251 -1.0365686,2.781752 -1.0365686,5.037865"
     id="path3121" /><path
     style="fill:#f48f00"
     inkscape:connector-curvature="0"
     d="m 24.7938,80.652446 8.0534,-1.028835 c 0.33306,1.299332 0.79743,2.230127 1.39572,2.790021 0.59916,0.559894 1.39658,0.839841 2.39228,0.839841 1.09048,0 1.934,-0.315384 2.53229,-0.947332 0.46524,-0.46894 0.69829,-1.056002 0.69829,-1.760004 0,-0.794955 -0.3061,-1.408003 -0.91656,-1.841508 -0.43915,-0.307114 -1.60181,-0.686283 -3.48886,-1.137506 -2.81751,-0.667384 -4.7776,-1.281614 -5.88113,-1.841507 -1.08962,-0.577613 -2.01314,-1.543843 -2.77056,-2.897511 -0.74438,-1.353668 -1.11657,-2.89751 -1.11657,-4.630347 0,-1.895843 0.40523,-3.529458 1.2157,-4.900844 0.81048,-1.371385 1.92705,-2.391952 3.34972,-3.059336 1.4218,-0.686283 3.32972,-1.028835 5.72113,-1.028835 2.5262,0 4.38628,0.262229 5.58199,0.785506 1.20962,0.524457 2.21314,1.335949 3.01057,2.438019 0.81047,1.100889 1.48181,2.590396 2.01314,4.46734 l -7.69513,1.028834 c -0.20001,-0.920163 -0.53133,-1.598178 -0.99744,-2.030501 -0.63829,-0.577612 -1.40876,-0.865828 -2.31228,-0.867009 -0.91656,0 -1.5879,0.225611 -2.01313,0.676834 -0.4122,0.433504 -0.61829,0.96623 -0.61829,1.598178 0,0.704002 0.2661,1.236728 0.79742,1.598179 0.53133,0.360269 1.68704,0.686283 3.46886,0.974499 2.69751,0.414605 4.70456,0.993398 6.0194,1.732836 1.31571,0.740619 2.31923,1.796622 3.01057,3.168008 0.70438,1.372567 1.05657,2.879792 1.05657,4.521675 0,1.660782 -0.37219,3.276679 -1.1157,4.847689 -0.73134,1.56983 -1.894,2.825457 -3.48886,3.763338 -1.58181,0.921345 -3.7419,1.380836 -6.47942,1.380836 -3.868,0 -6.62552,-0.750069 -8.27255,-2.247844 -1.63659,-1.500138 -2.68621,-3.631043 -3.15057,-6.392714"
     id="path3131" /></g>
</svg>